<svg width="96" height="96" viewBox="0 0 96 96" fill="none" xmlns="http://www.w3.org/2000/svg">
<path d="M56.6244 47.9978L26.1544 73.3878C24.9382 74.4094 24.1764 75.8712 24.0358 77.4533C23.8951 79.0354 24.3872 80.6087 25.4042 81.8287C26.4211 83.0488 27.8801 83.8161 29.4616 83.9627C31.0432 84.1093 32.6183 83.6231 33.8422 82.6108L69.8437 52.6094C70.5188 52.0454 71.0618 51.3401 71.4344 50.5433C71.807 49.7464 72.0001 48.8775 72.0001 47.9978C72.0001 47.1182 71.807 46.2493 71.4344 45.4524C71.0618 44.6556 70.5188 43.9503 69.8437 43.3863L33.8422 13.385C32.6189 12.3678 31.0418 11.8778 29.4574 12.0226C27.873 12.1674 26.4109 12.9351 25.3923 14.1572C24.3736 15.3793 23.8817 16.9558 24.0246 18.5404C24.1675 20.1249 24.9335 21.588 26.1544 22.6081L56.6244 47.9978Z" fill="#C4C4C4"/>
</svg>
